<svg xmlns="http://www.w3.org/2000/svg" viewBox="0 0 100 100" width="80" height="80">
  <rect width="100" height="100" fill="white" rx="4"/>
  <g fill="#1e293b">
    <rect x="10" y="10" width="8" height="8"/><rect x="18" y="10" width="8" height="8"/><rect x="26" y="10" width="4" height="4"/><rect x="34" y="10" width="4" height="4"/><rect x="42" y="10" width="4" height="4"/><rect x="50" y="10" width="4" height="4"/><rect x="58" y="10" width="4" height="4"/><rect x="66" y="10" width="4" height="4"/><rect x="74" y="10" width="8" height="8"/><rect x="82" y="10" width="8" height="8"/>
    <rect x="10" y="18" width="4" height="4"/><rect x="22" y="18" width="4" height="4"/><rect x="30" y="18" width="4" height="4"/><rect x="38" y="18" width="4" height="4"/><rect x="46" y="18" width="8" height="4"/><rect x="58" y="18" width="4" height="4"/><rect x="70" y="18" width="4" height="4"/><rect x="82" y="18" width="4" height="4"/>
    <rect x="10" y="26" width="4" height="4"/><rect x="18" y="26" width="4" height="4"/><rect x="26" y="26" width="4" height="4"/><rect x="34" y="26" width="8" height="4"/><rect x="46" y="26" width="4" height="4"/><rect x="54" y="26" width="8" height="4"/><rect x="66" y="26" width="4" height="4"/><rect x="74" y="26" width="4" height="4"/><rect x="82" y="26" width="4" height="4"/>
    <rect x="10" y="34" width="8" height="4"/><rect x="22" y="34" width="8" height="4"/><rect x="34" y="34" width="4" height="4"/><rect x="42" y="34" width="8" height="4"/><rect x="54" y="34" width="4" height="4"/><rect x="62" y="34" width="4" height="4"/><rect x="70" y="34" width="4" height="4"/><rect x="78" y="34" width="4" height="4"/><rect x="86" y="34" width="4" height="4"/>
    <rect x="10" y="42" width="4" height="4"/><rect x="18" y="42" width="8" height="4"/><rect x="30" y="42" width="4" height="4"/><rect x="38" y="42" width="4" height="4"/><rect x="46" y="42" width="8" height="4"/><rect x="58" y="42" width="4" height="4"/><rect x="66" y="42" width="8" height="4"/><rect x="78" y="42" width="4" height="4"/><rect x="86" y="42" width="4" height="4"/>
    <rect x="10" y="50" width="4" height="4"/><rect x="22" y="50" width="4" height="4"/><rect x="30" y="50" width="8" height="4"/><rect x="42" y="50" width="4" height="4"/><rect x="50" y="50" width="4" height="4"/><rect x="58" y="50" width="4" height="4"/><rect x="66" y="50" width="4" height="4"/><rect x="74" y="50" width="8" height="4"/><rect x="86" y="50" width="4" height="4"/>
    <rect x="10" y="58" width="8" height="4"/><rect x="22" y="58" width="4" height="4"/><rect x="30" y="58" width="4" height="4"/><rect x="38" y="58" width="4" height="4"/><rect x="46" y="58" width="4" height="4"/><rect x="54" y="58" width="8" height="4"/><rect x="66" y="58" width="4" height="4"/><rect x="74" y="58" width="4" height="4"/><rect x="82" y="58" width="8" height="4"/>
    <rect x="10" y="66" width="4" height="4"/><rect x="18" y="66" width="4" height="4"/><rect x="26" y="66" width="4" height="4"/><rect x="34" y="66" width="8" height="4"/><rect x="46" y="66" width="4" height="4"/><rect x="54" y="66" width="4" height="4"/><rect x="62" y="66" width="8" height="4"/><rect x="74" y="66" width="8" height="4"/><rect x="86" y="66" width="4" height="4"/>
    <rect x="10" y="74" width="8" height="8"/><rect x="22" y="74" width="4" height="4"/><rect x="30" y="74" width="4" height="4"/><rect x="38" y="74" width="4" height="4"/><rect x="46" y="74" width="4" height="4"/><rect x="54" y="74" width="8" height="4"/><rect x="66" y="74" width="4" height="4"/><rect x="74" y="74" width="8" height="8"/>
    <rect x="10" y="82" width="4" height="4"/><rect x="22" y="82" width="4" height="4"/><rect x="30" y="82" width="4" height="4"/><rect x="38" y="82" width="8" height="4"/><rect x="50" y="82" width="4" height="4"/><rect x="58" y="82" width="4" height="4"/><rect x="66" y="82" width="4" height="4"/><rect x="82" y="82" width="4" height="4"/>
    <rect x="10" y="86" width="4" height="4"/><rect x="18" y="86" width="4" height="4"/><rect x="26" y="86" width="4" height="4"/><rect x="34" y="86" width="4" height="4"/><rect x="42" y="86" width="4" height="4"/><rect x="50" y="86" width="4" height="4"/><rect x="62" y="86" width="4" height="4"/><rect x="70" y="86" width="4" height="4"/><rect x="78" y="86" width="4" height="4"/><rect x="86" y="86" width="4" height="4"/>
  </g>
</svg>
